<mxfile host="app.diagrams.net" agent="Mozilla/5.0 (X11; Linux x86_64) AppleWebKit/537.36 (KHTML, like Gecko) Chrome/134.0.0.0 Safari/537.36 OPR/119.0.0.0" version="27.0.5">
  <diagram id="C5RBs43oDa-KdzZeNtuy" name="Page-1">
    <mxGraphModel dx="1424" dy="795" grid="1" gridSize="10" guides="1" tooltips="1" connect="1" arrows="1" fold="1" page="1" pageScale="1" pageWidth="1169" pageHeight="1654" math="0" shadow="0">
      <root>
        <mxCell id="WIyWlLk6GJQsqaUBKTNV-0" />
        <mxCell id="WIyWlLk6GJQsqaUBKTNV-1" parent="WIyWlLk6GJQsqaUBKTNV-0" />
        <mxCell id="WIyWlLk6GJQsqaUBKTNV-2" value="" style="rounded=0;html=1;jettySize=auto;orthogonalLoop=1;fontSize=11;endArrow=block;endFill=0;endSize=8;strokeWidth=1;shadow=0;labelBackgroundColor=none;edgeStyle=orthogonalEdgeStyle;" parent="WIyWlLk6GJQsqaUBKTNV-1" source="2j19XSKm0a61P64cgnkK-2" target="WIyWlLk6GJQsqaUBKTNV-6" edge="1">
          <mxGeometry relative="1" as="geometry">
            <mxPoint x="508" y="100" as="sourcePoint" />
          </mxGeometry>
        </mxCell>
        <mxCell id="WIyWlLk6GJQsqaUBKTNV-5" value="No" style="edgeStyle=orthogonalEdgeStyle;rounded=0;html=1;jettySize=auto;orthogonalLoop=1;fontSize=11;endArrow=block;endFill=0;endSize=8;strokeWidth=1;shadow=0;labelBackgroundColor=none;" parent="WIyWlLk6GJQsqaUBKTNV-1" source="WIyWlLk6GJQsqaUBKTNV-6" target="2j19XSKm0a61P64cgnkK-1" edge="1">
          <mxGeometry y="10" relative="1" as="geometry">
            <mxPoint as="offset" />
            <mxPoint x="718" y="270" as="targetPoint" />
          </mxGeometry>
        </mxCell>
        <mxCell id="2j19XSKm0a61P64cgnkK-22" value="" style="edgeStyle=orthogonalEdgeStyle;rounded=0;orthogonalLoop=1;jettySize=auto;html=1;" edge="1" parent="WIyWlLk6GJQsqaUBKTNV-1" source="WIyWlLk6GJQsqaUBKTNV-6" target="2j19XSKm0a61P64cgnkK-21">
          <mxGeometry relative="1" as="geometry" />
        </mxCell>
        <mxCell id="2j19XSKm0a61P64cgnkK-23" value="Yes" style="edgeLabel;html=1;align=center;verticalAlign=middle;resizable=0;points=[];" vertex="1" connectable="0" parent="2j19XSKm0a61P64cgnkK-22">
          <mxGeometry x="-0.2222" y="1" relative="1" as="geometry">
            <mxPoint as="offset" />
          </mxGeometry>
        </mxCell>
        <mxCell id="WIyWlLk6GJQsqaUBKTNV-6" value="¿Usuario autenticado?" style="rhombus;whiteSpace=wrap;html=1;shadow=0;fontFamily=Helvetica;fontSize=12;align=center;strokeWidth=1;spacing=6;spacingTop=-4;" parent="WIyWlLk6GJQsqaUBKTNV-1" vertex="1">
          <mxGeometry x="140" y="150" width="100" height="80" as="geometry" />
        </mxCell>
        <mxCell id="2j19XSKm0a61P64cgnkK-13" value="" style="edgeStyle=orthogonalEdgeStyle;rounded=0;orthogonalLoop=1;jettySize=auto;html=1;" edge="1" parent="WIyWlLk6GJQsqaUBKTNV-1" source="2j19XSKm0a61P64cgnkK-1" target="2j19XSKm0a61P64cgnkK-12">
          <mxGeometry relative="1" as="geometry" />
        </mxCell>
        <mxCell id="2j19XSKm0a61P64cgnkK-19" value="Yes" style="edgeLabel;html=1;align=center;verticalAlign=middle;resizable=0;points=[];" vertex="1" connectable="0" parent="2j19XSKm0a61P64cgnkK-13">
          <mxGeometry x="-0.4359" relative="1" as="geometry">
            <mxPoint as="offset" />
          </mxGeometry>
        </mxCell>
        <mxCell id="2j19XSKm0a61P64cgnkK-15" value="" style="edgeStyle=orthogonalEdgeStyle;rounded=0;orthogonalLoop=1;jettySize=auto;html=1;" edge="1" parent="WIyWlLk6GJQsqaUBKTNV-1" source="2j19XSKm0a61P64cgnkK-1" target="2j19XSKm0a61P64cgnkK-14">
          <mxGeometry relative="1" as="geometry" />
        </mxCell>
        <mxCell id="2j19XSKm0a61P64cgnkK-20" value="No" style="edgeLabel;html=1;align=center;verticalAlign=middle;resizable=0;points=[];" vertex="1" connectable="0" parent="2j19XSKm0a61P64cgnkK-15">
          <mxGeometry x="-0.2" y="-2" relative="1" as="geometry">
            <mxPoint as="offset" />
          </mxGeometry>
        </mxCell>
        <mxCell id="2j19XSKm0a61P64cgnkK-1" value="&lt;div&gt;&amp;nbsp; &amp;nbsp; &amp;nbsp; &amp;nbsp; &amp;nbsp; &amp;nbsp; &amp;nbsp; &amp;nbsp; &amp;nbsp; &amp;nbsp; &amp;nbsp; &amp;nbsp; &amp;nbsp; &amp;nbsp; &amp;nbsp;¿Usuario ya tiene cuenta?&lt;/div&gt;&lt;div&gt;&lt;br&gt;&lt;/div&gt;" style="rhombus;whiteSpace=wrap;html=1;" vertex="1" parent="WIyWlLk6GJQsqaUBKTNV-1">
          <mxGeometry x="380" y="140" width="127" height="100" as="geometry" />
        </mxCell>
        <mxCell id="2j19XSKm0a61P64cgnkK-2" value="Inicio" style="ellipse;whiteSpace=wrap;html=1;" vertex="1" parent="WIyWlLk6GJQsqaUBKTNV-1">
          <mxGeometry x="448" y="30" width="120" height="80" as="geometry" />
        </mxCell>
        <mxCell id="2j19XSKm0a61P64cgnkK-18" style="edgeStyle=orthogonalEdgeStyle;rounded=0;orthogonalLoop=1;jettySize=auto;html=1;exitX=0.25;exitY=0;exitDx=0;exitDy=0;entryX=1;entryY=0.5;entryDx=0;entryDy=0;" edge="1" parent="WIyWlLk6GJQsqaUBKTNV-1" source="2j19XSKm0a61P64cgnkK-12" target="2j19XSKm0a61P64cgnkK-2">
          <mxGeometry relative="1" as="geometry" />
        </mxCell>
        <mxCell id="2j19XSKm0a61P64cgnkK-12" value="Inicia sesión&amp;nbsp;" style="whiteSpace=wrap;html=1;" vertex="1" parent="WIyWlLk6GJQsqaUBKTNV-1">
          <mxGeometry x="585" y="170" width="120" height="40" as="geometry" />
        </mxCell>
        <mxCell id="2j19XSKm0a61P64cgnkK-16" style="edgeStyle=orthogonalEdgeStyle;rounded=0;orthogonalLoop=1;jettySize=auto;html=1;exitX=0.25;exitY=1;exitDx=0;exitDy=0;entryX=1;entryY=0.5;entryDx=0;entryDy=0;" edge="1" parent="WIyWlLk6GJQsqaUBKTNV-1" source="2j19XSKm0a61P64cgnkK-14" target="2j19XSKm0a61P64cgnkK-12">
          <mxGeometry relative="1" as="geometry" />
        </mxCell>
        <mxCell id="2j19XSKm0a61P64cgnkK-14" value="Registro de usuario" style="whiteSpace=wrap;html=1;" vertex="1" parent="WIyWlLk6GJQsqaUBKTNV-1">
          <mxGeometry x="383.5" y="280" width="120" height="60" as="geometry" />
        </mxCell>
        <mxCell id="2j19XSKm0a61P64cgnkK-25" value="" style="edgeStyle=orthogonalEdgeStyle;rounded=0;orthogonalLoop=1;jettySize=auto;html=1;" edge="1" parent="WIyWlLk6GJQsqaUBKTNV-1" source="2j19XSKm0a61P64cgnkK-21" target="2j19XSKm0a61P64cgnkK-24">
          <mxGeometry relative="1" as="geometry" />
        </mxCell>
        <mxCell id="2j19XSKm0a61P64cgnkK-21" value="Usuario selecciona producto y cantidad" style="whiteSpace=wrap;html=1;shadow=0;strokeWidth=1;spacing=6;spacingTop=-4;" vertex="1" parent="WIyWlLk6GJQsqaUBKTNV-1">
          <mxGeometry x="130" y="320" width="120" height="60" as="geometry" />
        </mxCell>
        <mxCell id="2j19XSKm0a61P64cgnkK-27" value="" style="edgeStyle=orthogonalEdgeStyle;rounded=0;orthogonalLoop=1;jettySize=auto;html=1;" edge="1" parent="WIyWlLk6GJQsqaUBKTNV-1" source="2j19XSKm0a61P64cgnkK-24" target="2j19XSKm0a61P64cgnkK-26">
          <mxGeometry relative="1" as="geometry" />
        </mxCell>
        <mxCell id="2j19XSKm0a61P64cgnkK-28" value="No" style="edgeLabel;html=1;align=center;verticalAlign=middle;resizable=0;points=[];" vertex="1" connectable="0" parent="2j19XSKm0a61P64cgnkK-27">
          <mxGeometry x="-0.1111" relative="1" as="geometry">
            <mxPoint as="offset" />
          </mxGeometry>
        </mxCell>
        <mxCell id="2j19XSKm0a61P64cgnkK-32" value="" style="edgeStyle=orthogonalEdgeStyle;rounded=0;orthogonalLoop=1;jettySize=auto;html=1;" edge="1" parent="WIyWlLk6GJQsqaUBKTNV-1" source="2j19XSKm0a61P64cgnkK-24" target="2j19XSKm0a61P64cgnkK-31">
          <mxGeometry relative="1" as="geometry" />
        </mxCell>
        <mxCell id="2j19XSKm0a61P64cgnkK-24" value="¿Hay suficiente stock?" style="rhombus;whiteSpace=wrap;html=1;shadow=0;strokeWidth=1;spacing=6;spacingTop=-4;" vertex="1" parent="WIyWlLk6GJQsqaUBKTNV-1">
          <mxGeometry x="150" y="450" width="80" height="80" as="geometry" />
        </mxCell>
        <mxCell id="2j19XSKm0a61P64cgnkK-26" value="Mostrar mensaje &quot;Sin stock&quot;" style="whiteSpace=wrap;html=1;shadow=0;strokeWidth=1;spacing=6;spacingTop=-4;" vertex="1" parent="WIyWlLk6GJQsqaUBKTNV-1">
          <mxGeometry x="130" y="600" width="120" height="50" as="geometry" />
        </mxCell>
        <mxCell id="2j19XSKm0a61P64cgnkK-34" value="" style="edgeStyle=orthogonalEdgeStyle;rounded=0;orthogonalLoop=1;jettySize=auto;html=1;" edge="1" parent="WIyWlLk6GJQsqaUBKTNV-1" source="2j19XSKm0a61P64cgnkK-31" target="2j19XSKm0a61P64cgnkK-33">
          <mxGeometry relative="1" as="geometry" />
        </mxCell>
        <mxCell id="2j19XSKm0a61P64cgnkK-35" value="Yes" style="edgeLabel;html=1;align=center;verticalAlign=middle;resizable=0;points=[];" vertex="1" connectable="0" parent="2j19XSKm0a61P64cgnkK-34">
          <mxGeometry x="-0.1524" relative="1" as="geometry">
            <mxPoint x="1" y="1" as="offset" />
          </mxGeometry>
        </mxCell>
        <mxCell id="2j19XSKm0a61P64cgnkK-37" value="" style="edgeStyle=orthogonalEdgeStyle;rounded=0;orthogonalLoop=1;jettySize=auto;html=1;" edge="1" parent="WIyWlLk6GJQsqaUBKTNV-1" source="2j19XSKm0a61P64cgnkK-31" target="2j19XSKm0a61P64cgnkK-36">
          <mxGeometry relative="1" as="geometry" />
        </mxCell>
        <mxCell id="2j19XSKm0a61P64cgnkK-39" value="No" style="edgeLabel;html=1;align=center;verticalAlign=middle;resizable=0;points=[];" vertex="1" connectable="0" parent="2j19XSKm0a61P64cgnkK-37">
          <mxGeometry x="-0.0857" y="-1" relative="1" as="geometry">
            <mxPoint as="offset" />
          </mxGeometry>
        </mxCell>
        <mxCell id="2j19XSKm0a61P64cgnkK-31" value="¿Tiene orden activa?" style="rhombus;whiteSpace=wrap;html=1;shadow=0;strokeWidth=1;spacing=6;spacingTop=-4;" vertex="1" parent="WIyWlLk6GJQsqaUBKTNV-1">
          <mxGeometry x="310" y="455" width="100" height="70" as="geometry" />
        </mxCell>
        <mxCell id="2j19XSKm0a61P64cgnkK-41" value="" style="edgeStyle=orthogonalEdgeStyle;rounded=0;orthogonalLoop=1;jettySize=auto;html=1;" edge="1" parent="WIyWlLk6GJQsqaUBKTNV-1" source="2j19XSKm0a61P64cgnkK-33" target="2j19XSKm0a61P64cgnkK-40">
          <mxGeometry relative="1" as="geometry" />
        </mxCell>
        <mxCell id="2j19XSKm0a61P64cgnkK-33" value="Suma producto&amp;nbsp;y cantidad a la orden" style="whiteSpace=wrap;html=1;shadow=0;strokeWidth=1;spacing=6;spacingTop=-4;" vertex="1" parent="WIyWlLk6GJQsqaUBKTNV-1">
          <mxGeometry x="340" y="590" width="120" height="60" as="geometry" />
        </mxCell>
        <mxCell id="2j19XSKm0a61P64cgnkK-42" style="edgeStyle=orthogonalEdgeStyle;rounded=0;orthogonalLoop=1;jettySize=auto;html=1;exitX=0.5;exitY=1;exitDx=0;exitDy=0;entryX=0;entryY=0.5;entryDx=0;entryDy=0;" edge="1" parent="WIyWlLk6GJQsqaUBKTNV-1" source="2j19XSKm0a61P64cgnkK-36" target="2j19XSKm0a61P64cgnkK-40">
          <mxGeometry relative="1" as="geometry" />
        </mxCell>
        <mxCell id="2j19XSKm0a61P64cgnkK-36" value="Crea nueva orden y agrega producto" style="whiteSpace=wrap;html=1;shadow=0;strokeWidth=1;spacing=6;spacingTop=-4;" vertex="1" parent="WIyWlLk6GJQsqaUBKTNV-1">
          <mxGeometry x="480" y="460" width="120" height="60" as="geometry" />
        </mxCell>
        <mxCell id="2j19XSKm0a61P64cgnkK-44" value="" style="edgeStyle=orthogonalEdgeStyle;rounded=0;orthogonalLoop=1;jettySize=auto;html=1;" edge="1" parent="WIyWlLk6GJQsqaUBKTNV-1" source="2j19XSKm0a61P64cgnkK-40" target="2j19XSKm0a61P64cgnkK-43">
          <mxGeometry relative="1" as="geometry" />
        </mxCell>
        <mxCell id="2j19XSKm0a61P64cgnkK-45" value="Yes" style="edgeLabel;html=1;align=center;verticalAlign=middle;resizable=0;points=[];" vertex="1" connectable="0" parent="2j19XSKm0a61P64cgnkK-44">
          <mxGeometry y="1" relative="1" as="geometry">
            <mxPoint as="offset" />
          </mxGeometry>
        </mxCell>
        <mxCell id="2j19XSKm0a61P64cgnkK-47" value="" style="edgeStyle=orthogonalEdgeStyle;rounded=0;orthogonalLoop=1;jettySize=auto;html=1;" edge="1" parent="WIyWlLk6GJQsqaUBKTNV-1" source="2j19XSKm0a61P64cgnkK-40" target="2j19XSKm0a61P64cgnkK-46">
          <mxGeometry relative="1" as="geometry" />
        </mxCell>
        <mxCell id="2j19XSKm0a61P64cgnkK-48" value="No" style="edgeLabel;html=1;align=center;verticalAlign=middle;resizable=0;points=[];" vertex="1" connectable="0" parent="2j19XSKm0a61P64cgnkK-47">
          <mxGeometry x="0.0444" y="1" relative="1" as="geometry">
            <mxPoint as="offset" />
          </mxGeometry>
        </mxCell>
        <mxCell id="2j19XSKm0a61P64cgnkK-40" value="¿Quiere confirmar orden?" style="rhombus;whiteSpace=wrap;html=1;shadow=0;strokeWidth=1;spacing=6;spacingTop=-4;" vertex="1" parent="WIyWlLk6GJQsqaUBKTNV-1">
          <mxGeometry x="560" y="580" width="80" height="80" as="geometry" />
        </mxCell>
        <mxCell id="2j19XSKm0a61P64cgnkK-51" style="edgeStyle=orthogonalEdgeStyle;rounded=0;orthogonalLoop=1;jettySize=auto;html=1;exitX=0.5;exitY=1;exitDx=0;exitDy=0;entryX=0.5;entryY=0;entryDx=0;entryDy=0;" edge="1" parent="WIyWlLk6GJQsqaUBKTNV-1" source="2j19XSKm0a61P64cgnkK-43" target="2j19XSKm0a61P64cgnkK-50">
          <mxGeometry relative="1" as="geometry" />
        </mxCell>
        <mxCell id="2j19XSKm0a61P64cgnkK-43" value="Cambia status a &#39;confirmed&#39;&amp;nbsp;y muestra mensaje éxito" style="whiteSpace=wrap;html=1;shadow=0;strokeWidth=1;spacing=6;spacingTop=-4;" vertex="1" parent="WIyWlLk6GJQsqaUBKTNV-1">
          <mxGeometry x="710" y="530" width="120" height="60" as="geometry" />
        </mxCell>
        <mxCell id="2j19XSKm0a61P64cgnkK-49" style="edgeStyle=orthogonalEdgeStyle;rounded=0;orthogonalLoop=1;jettySize=auto;html=1;exitX=0;exitY=0.5;exitDx=0;exitDy=0;entryX=0;entryY=0.5;entryDx=0;entryDy=0;" edge="1" parent="WIyWlLk6GJQsqaUBKTNV-1" source="2j19XSKm0a61P64cgnkK-46" target="2j19XSKm0a61P64cgnkK-21">
          <mxGeometry relative="1" as="geometry" />
        </mxCell>
        <mxCell id="2j19XSKm0a61P64cgnkK-46" value="Seguir comprando" style="whiteSpace=wrap;html=1;shadow=0;strokeWidth=1;spacing=6;spacingTop=-4;" vertex="1" parent="WIyWlLk6GJQsqaUBKTNV-1">
          <mxGeometry x="540" y="750" width="120" height="60" as="geometry" />
        </mxCell>
        <mxCell id="2j19XSKm0a61P64cgnkK-50" value="Fin&lt;div&gt;&lt;br&gt;&lt;/div&gt;" style="ellipse;whiteSpace=wrap;html=1;" vertex="1" parent="WIyWlLk6GJQsqaUBKTNV-1">
          <mxGeometry x="780" y="680" width="120" height="80" as="geometry" />
        </mxCell>
      </root>
    </mxGraphModel>
  </diagram>
</mxfile>
